<svg width="27" height="23" viewBox="0 0 27 23" fill="none" xmlns="http://www.w3.org/2000/svg">
<path fill-rule="evenodd" clip-rule="evenodd" d="M18.4375 4.51282V4.72468C19.8316 4.83555 21.2201 4.99497 22.5996 5.20255C22.7038 5.21824 22.8034 5.25161 22.8927 5.30077C22.982 5.34993 23.0593 5.4139 23.1202 5.48904C23.1811 5.56418 23.2244 5.64902 23.2476 5.73871C23.2708 5.82839 23.2734 5.92117 23.2554 6.01175C23.2374 6.10233 23.199 6.18893 23.1425 6.26661C23.0859 6.34428 23.0124 6.41152 22.926 6.46447C22.8396 6.51743 22.742 6.55506 22.6389 6.57523C22.5357 6.5954 22.429 6.5977 22.3249 6.58202L22.1006 6.54935L21.0219 18.748C20.9597 19.4514 20.5945 20.1084 19.9994 20.5877C19.4042 21.067 18.6229 21.3333 17.8118 21.3333H9.40478C8.5936 21.3333 7.81232 21.067 7.21715 20.5877C6.62199 20.1084 6.25681 19.4514 6.19462 18.748L5.1149 6.54935L4.89059 6.58202C4.78643 6.5977 4.67974 6.5954 4.5766 6.57523C4.47347 6.55506 4.37591 6.51743 4.28951 6.46447C4.115 6.35753 3.99649 6.19468 3.96006 6.01175C3.92362 5.82882 3.97224 5.6408 4.09522 5.48904C4.2182 5.33729 4.40547 5.23423 4.61583 5.20255C5.99527 4.99472 7.38379 4.8353 8.77799 4.72468V4.51282C8.77799 3.05308 10.0799 1.80615 11.8003 1.75855C13.0053 1.72501 14.2112 1.72501 15.4162 1.75855C17.1367 1.80615 18.4375 3.05308 18.4375 4.51282ZM11.8519 3.15762C13.0225 3.12506 14.194 3.12506 15.3647 3.15762C16.1729 3.18002 16.8276 3.77175 16.8276 4.51282V4.61828C14.683 4.50502 12.5325 4.50502 10.3879 4.61828V4.51282C10.3879 3.77175 11.0415 3.18002 11.8519 3.15762ZM11.4708 8.70628C11.4668 8.61436 11.4419 8.52403 11.3977 8.44046C11.3534 8.3569 11.2907 8.28172 11.2131 8.21924C11.1354 8.15675 11.0444 8.10817 10.9452 8.07628C10.8459 8.04438 10.7405 8.0298 10.6348 8.03335C10.529 8.0369 10.4252 8.05853 10.3291 8.09699C10.233 8.13545 10.1465 8.19 10.0747 8.25751C10.0028 8.32503 9.94697 8.40419 9.91029 8.49048C9.87361 8.57677 9.85684 8.66849 9.86093 8.76042L10.2334 17.1604C10.2416 17.3459 10.3343 17.521 10.491 17.6471C10.5686 17.7096 10.6595 17.7581 10.7587 17.79C10.8579 17.8219 10.9633 17.8364 11.0689 17.8329C11.1745 17.8293 11.2783 17.8077 11.3744 17.7693C11.4704 17.7308 11.5568 17.6763 11.6286 17.6089C11.7004 17.5414 11.7562 17.4623 11.7929 17.376C11.8295 17.2898 11.8463 17.1981 11.8422 17.1063L11.4708 8.70628ZM17.3524 8.76042C17.3603 8.66673 17.3464 8.57261 17.3115 8.48369C17.2767 8.39477 17.2216 8.31286 17.1496 8.24283C17.0776 8.1728 16.9901 8.11609 16.8924 8.07608C16.7947 8.03608 16.6887 8.01358 16.5807 8.00995C16.4728 8.00632 16.3651 8.02161 16.2641 8.05493C16.1631 8.08825 16.0708 8.1389 15.9928 8.20388C15.9148 8.26885 15.8526 8.34682 15.81 8.43314C15.7673 8.51945 15.7451 8.61234 15.7446 8.70628L15.3722 17.1063C15.3639 17.2919 15.4408 17.4728 15.586 17.6092C15.7311 17.7455 15.9325 17.8262 16.146 17.8333C16.3595 17.8405 16.5675 17.7737 16.7243 17.6475C16.8811 17.5213 16.9739 17.3461 16.9821 17.1604L17.3524 8.76042Z" fill="#E80000"/>
</svg>
