<svg width="23" height="20" viewBox="0 0 23 20" fill="none" xmlns="http://www.w3.org/2000/svg">
<path d="M21.5546 1.61629C21.0514 1.17885 20.3691 0.933105 19.6576 0.933105C18.9461 0.933105 18.2637 1.17885 17.7605 1.61629L7.58301 10.4668V13.7662H11.3771L21.5546 4.91567C22.0576 4.4781 22.3402 3.88471 22.3402 3.26598C22.3402 2.64725 22.0576 2.05386 21.5546 1.61629Z" fill="#141414"/>
<path fill-rule="evenodd" clip-rule="evenodd" d="M0.875 5.59949C0.875 4.98064 1.1577 4.38713 1.6609 3.94954C2.16411 3.51195 2.8466 3.26611 3.55823 3.26611H8.9247C9.28052 3.26611 9.62177 3.38903 9.87337 3.60783C10.125 3.82662 10.2663 4.12338 10.2663 4.4328C10.2663 4.74222 10.125 5.03898 9.87337 5.25777C9.62177 5.47657 9.28052 5.59949 8.9247 5.59949H3.55823V17.2663H16.9744V12.5996C16.9744 12.2902 17.1158 11.9934 17.3674 11.7746C17.619 11.5558 17.9602 11.4329 18.316 11.4329C18.6718 11.4329 19.0131 11.5558 19.2647 11.7746C19.5163 11.9934 19.6576 12.2902 19.6576 12.5996V17.2663C19.6576 17.8852 19.3749 18.4787 18.8717 18.9163C18.3685 19.3539 17.686 19.5997 16.9744 19.5997H3.55823C2.8466 19.5997 2.16411 19.3539 1.6609 18.9163C1.1577 18.4787 0.875 17.8852 0.875 17.2663V5.59949Z" fill="#141414"/>
</svg>
